<svg xmlns="http://www.w3.org/2000/svg" viewBox="0 0 163.3 31.51"><defs><style>.cls-1{fill:#31a950;}</style></defs><title>Asset 1</title><g id="Layer_2" data-name="Layer 2"><g id="Layer_1-2" data-name="Layer 1"><g id="_Group_" data-name="&lt;Group&gt;"><path id="_Compound_Path_" data-name="&lt;Compound Path&gt;" class="cls-1" d="M59.49,8.33a1.54,1.54,0,0,1-.11.59L52.91,24.38a1.54,1.54,0,0,1-2.84,0l-2-4.91L46,24.38a1.54,1.54,0,0,1-2.84,0L36.65,8.92a1.54,1.54,0,0,1-.11-.59,1.57,1.57,0,0,1,1.57-1.56,1.53,1.53,0,0,1,1.41,1l5,12,1.78-4.32-2.7-6.52a1.6,1.6,0,0,1-.14-.61,1.55,1.55,0,0,1,1.57-1.54,1.39,1.39,0,0,1,1.4,1L48,11.44l1.54-3.72a1.52,1.52,0,0,1,1.4-1,1.57,1.57,0,0,1,1.57,1.56,1.54,1.54,0,0,1-.11.59L49.7,15.44l1.8,4.32,5-12a1.52,1.52,0,0,1,1.4-1,1.55,1.55,0,0,1,.61.13A1.52,1.52,0,0,1,59.49,8.33Z"/><path id="_Compound_Path_2" data-name="&lt;Compound Path&gt;" class="cls-1" d="M69.83,23.79a1.55,1.55,0,0,1-1.54,1.54,1.51,1.51,0,0,1-1.38-.85,6.3,6.3,0,0,1-1.83.64,8.74,8.74,0,0,1-1.67.19,4,4,0,0,1-4.29-3.16,3.24,3.24,0,0,1-.11-.87,3.36,3.36,0,0,1,.69-2.05c.61-.79,1.88-1.75,4.75-1.85.4,0,.77,0,1.16,0a7.32,7.32,0,0,1,1,0,1.59,1.59,0,0,0-.53-1,2.89,2.89,0,0,0-1.32-.32,4.43,4.43,0,0,0-2.58.9,1.51,1.51,0,0,1-1,.35A1.55,1.55,0,0,1,60,16.74a1.56,1.56,0,0,1,.21-2.18A6.94,6.94,0,0,1,64,13a5.31,5.31,0,0,1,.69,0,6.05,6.05,0,0,1,2.89.69c2.13,1.2,2.2,4,2.2,4.27V22.1Zm-3.31-3.28a5.84,5.84,0,0,0-.91-.06c-.34,0-.71,0-1.35,0a3.09,3.09,0,0,0-2.09.61.37.37,0,0,0-.08.21s0,.08,0,.13c.08.32.19.77,1.3.77a5.91,5.91,0,0,0,1-.1.18.18,0,0,1,.11,0,2.62,2.62,0,0,0,1.85-1.25Z"/><path id="_Compound_Path_3" data-name="&lt;Compound Path&gt;" class="cls-1" d="M75.32,8.31V23.79a1.55,1.55,0,0,1-3.1,0V8.31a1.55,1.55,0,0,1,3.1,0Z"/><path id="_Compound_Path_4" data-name="&lt;Compound Path&gt;" class="cls-1" d="M87.31,22.68a1.51,1.51,0,0,1,.45,1.11,1.54,1.54,0,0,1-1.54,1.54,1.57,1.57,0,0,1-1.09-.45l-4.32-4.32v3.23a1.56,1.56,0,0,1-1.56,1.54,1.54,1.54,0,0,1-1.54-1.54V8.31a1.54,1.54,0,0,1,1.54-1.54,1.56,1.56,0,0,1,1.56,1.54v9.41l4.32-4.32A1.55,1.55,0,0,1,86.22,13a1.59,1.59,0,0,1,1.09.43,1.66,1.66,0,0,1,.45,1.11,1.55,1.55,0,0,1-.45,1.09l-3.55,3.55Z"/><path id="_Compound_Path_5" data-name="&lt;Compound Path&gt;" class="cls-1" d="M91.69,10.67a1.56,1.56,0,0,1,0-3.11,1.56,1.56,0,1,1,0,3.11ZM90.15,23.79V14.51A1.56,1.56,0,0,1,91.69,13a1.58,1.58,0,0,1,1.56,1.56v9.28a1.56,1.56,0,0,1-1.56,1.54A1.54,1.54,0,0,1,90.15,23.79Z"/><path id="_Compound_Path_6" data-name="&lt;Compound Path&gt;" class="cls-1" d="M106.46,14.51v9.28a1.52,1.52,0,0,1-1,1.44,1.35,1.35,0,0,1-.56.1,1.53,1.53,0,0,1-1.16-.55l-5-6v5a1.55,1.55,0,0,1-3.1,0V14.51a1.54,1.54,0,0,1,1-1.46,1.34,1.34,0,0,1,.55-.1,1.55,1.55,0,0,1,1.17.55l5,6v-5a1.54,1.54,0,1,1,3.08,0Z"/><path id="_Compound_Path_7" data-name="&lt;Compound Path&gt;" class="cls-1" d="M120.44,25.33A6.43,6.43,0,0,1,119,29.42a5.68,5.68,0,0,1-4.37,2.09h-.37a5.85,5.85,0,0,1-4.41-2.7,1.56,1.56,0,0,1,.48-2.12,1.45,1.45,0,0,1,.85-.27,1.53,1.53,0,0,1,1.27.72,2.65,2.65,0,0,0,2,1.27h.16a2.65,2.65,0,0,0,2-.95,3.46,3.46,0,0,0,.74-2.13v-.71a5.56,5.56,0,0,1-2.71.71,6,6,0,0,1-5.8-6.2,6,6,0,0,1,5.8-6.18,5.57,5.57,0,0,1,2.9.82A1.5,1.5,0,0,1,118.9,13a1.54,1.54,0,0,1,1.54,1.54V25.33Zm-3.08-6.2a2.73,2.73,0,1,0-5.41,0,2.73,2.73,0,1,0,5.41,0Z"/><path id="_Compound_Path_8" data-name="&lt;Compound Path&gt;" class="cls-1" d="M129.67,6.77a1.55,1.55,0,1,1,0,3.1h-3.08V23.79A1.56,1.56,0,0,1,125,25.33a1.54,1.54,0,0,1-1.54-1.54V9.87h-3.11a1.55,1.55,0,0,1,0-3.1Z"/><path id="_Compound_Path_9" data-name="&lt;Compound Path&gt;" class="cls-1" d="M138.1,14.51a1.54,1.54,0,0,1-1.54,1.54,1.76,1.76,0,0,0-1.43.48,1,1,0,0,0-.11.29v7a1.55,1.55,0,0,1-3.1,0V14.51A1.55,1.55,0,0,1,133.46,13a1.48,1.48,0,0,1,1,.37,5.43,5.43,0,0,1,2.09-.37A1.55,1.55,0,0,1,138.1,14.51Z"/><path id="_Compound_Path_10" data-name="&lt;Compound Path&gt;" class="cls-1" d="M144.57,25.31a5.31,5.31,0,0,1-4-2,6.74,6.74,0,0,1-1.32-4.21c0-3.42,2.44-6.18,5.41-6.18a5.11,5.11,0,0,1,3.87,1.75,6,6,0,0,1,1.54,4.16,1.57,1.57,0,0,1-1.54,1.57h-6a2.3,2.3,0,0,0,2.2,1.8h.16a2.93,2.93,0,0,0,1.8-.48,1.66,1.66,0,0,1,.85-.24,1.54,1.54,0,0,1,1.3.69,1.31,1.31,0,0,1,.27.83,1.61,1.61,0,0,1-.72,1.32,6,6,0,0,1-3.34,1A3.11,3.11,0,0,1,144.57,25.31Zm2.1-8a2.22,2.22,0,0,0-2-1.3,2.27,2.27,0,0,0-1.86,1.3Z"/><path id="_Compound_Path_11" data-name="&lt;Compound Path&gt;" class="cls-1" d="M157.78,25.31a5.31,5.31,0,0,1-4-2,6.74,6.74,0,0,1-1.32-4.21c0-3.42,2.44-6.18,5.41-6.18a5.11,5.11,0,0,1,3.87,1.75,6,6,0,0,1,1.54,4.16,1.57,1.57,0,0,1-1.54,1.57h-6a2.29,2.29,0,0,0,2.2,1.8h.16a2.93,2.93,0,0,0,1.8-.48,1.66,1.66,0,0,1,.85-.24,1.54,1.54,0,0,1,1.3.69,1.31,1.31,0,0,1,.27.83,1.61,1.61,0,0,1-.72,1.32,6,6,0,0,1-3.34,1A3.11,3.11,0,0,1,157.78,25.31Zm2.1-8a2.07,2.07,0,0,0-3.85,0Z"/></g><g id="_Group_2" data-name="&lt;Group&gt;"><g id="_Group_3" data-name="&lt;Group&gt;"><path id="_Path_" data-name="&lt;Path&gt;" class="cls-1" d="M13.13,21.67h0a.93.93,0,0,0,.93-.92v-2.7a.93.93,0,0,0-1.86,0v2.7A.93.93,0,0,0,13.13,21.67Z"/><path id="_Path_2" data-name="&lt;Path&gt;" class="cls-1" d="M19.14,21.67h0a.93.93,0,0,0,.93-.92v-2.7a.93.93,0,0,0-1.86,0v2.7A.93.93,0,0,0,19.14,21.67Z"/><path id="_Path_3" data-name="&lt;Path&gt;" class="cls-1" d="M16.14,25h0a.93.93,0,0,1-.93-.93v-4.5a.93.93,0,1,1,1.85,0V24A.93.93,0,0,1,16.14,25Z"/></g><g id="_Group_4" data-name="&lt;Group&gt;"><path id="_Path_4" data-name="&lt;Path&gt;" class="cls-1" d="M5.24,14.43A6.83,6.83,0,0,0,7,14.67a5.4,5.4,0,0,0,3.47-1.18l.16-.13-.07-.19A6.23,6.23,0,0,0,7,9.48a8.08,8.08,0,0,0-6.5.38L.28,10l.09.25A7.19,7.19,0,0,0,5.24,14.43Z"/><path id="_Path_5" data-name="&lt;Path&gt;" class="cls-1" d="M10.26.18,10,0,9.84.31a8.69,8.69,0,0,0,0,7.43,5,5,0,0,0,3.5,2.67l.18,0,.11-.15a5.61,5.61,0,0,0,1-4.45A9,9,0,0,0,10.26.18Z"/><path id="_Path_6" data-name="&lt;Path&gt;" class="cls-1" d="M6.46,17.41c-2.86.36-4.58,2.27-6.22,4.36l-.24.3.36.15a10.84,10.84,0,0,0,4,.85A9.23,9.23,0,0,0,5.56,23a6,6,0,0,0,5.15-4.06l.08-.2-.17-.13A5.53,5.53,0,0,0,6.46,17.41Z"/><path id="_Path_7" data-name="&lt;Path&gt;" class="cls-1" d="M22.37.31,22.24,0,22,.18a9,9,0,0,0-4.32,5.66,5.61,5.61,0,0,0,1,4.45l.11.15.18,0A5,5,0,0,0,22.4,7.74,8.69,8.69,0,0,0,22.37.31Z"/><path id="_Path_8" data-name="&lt;Path&gt;" class="cls-1" d="M32,21.77c-1.64-2.09-3.35-4-6.21-4.36a5.56,5.56,0,0,0-4.17,1.19l-.17.13.08.2A6,6,0,0,0,26.71,23a9.23,9.23,0,0,0,1.18.08,10.84,10.84,0,0,0,4-.85l.36-.15Z"/><path id="_Path_9" data-name="&lt;Path&gt;" class="cls-1" d="M21.62,13.17l-.07.19.15.13a5.42,5.42,0,0,0,3.47,1.18,6.72,6.72,0,0,0,1.76-.24,7.17,7.17,0,0,0,4.87-4.2l.1-.25-.25-.12a8.08,8.08,0,0,0-6.5-.38A6.21,6.21,0,0,0,21.62,13.17Z"/></g></g></g></g></svg>